<svg width="21" height="25" viewBox="0 0 21 25" fill="none" xmlns="http://www.w3.org/2000/svg">
<path d="M0.899902 20.9V18.5H3.2999V10.1C3.2999 8.44 3.7999 6.9652 4.7999 5.6756C5.7999 4.386 7.0999 3.5408 8.6999 3.14V2.3C8.6999 1.8 8.8751 1.3752 9.2255 1.0256C9.5759 0.676003 10.0007 0.500803 10.4999 0.500003C10.9991 0.499203 11.4243 0.674403 11.7755 1.0256C12.1267 1.3768 12.3015 1.8016 12.2999 2.3V3.14C13.8999 3.54 15.1999 4.3852 16.1999 5.6756C17.1999 6.966 17.6999 8.4408 17.6999 10.1V18.5H20.0999V20.9H0.899902ZM10.4999 24.5C9.8399 24.5 9.2751 24.2652 8.8055 23.7956C8.3359 23.326 8.1007 22.7608 8.0999 22.1H12.8999C12.8999 22.76 12.6651 23.3252 12.1955 23.7956C11.7259 24.266 11.1607 24.5008 10.4999 24.5ZM5.6999 18.5H15.2999V10.1C15.2999 8.78 14.8299 7.65 13.8899 6.71C12.9499 5.77 11.8199 5.3 10.4999 5.3C9.1799 5.3 8.0499 5.77 7.1099 6.71C6.1699 7.65 5.6999 8.78 5.6999 10.1V18.5Z" fill="#EEEEEE"/>
</svg>
