<svg width="19" height="25" viewBox="0 0 19 25" fill="none" xmlns="http://www.w3.org/2000/svg">
<path d="M17.6665 6.5H14.1665V5.3C14.1665 4.02696 13.6748 2.80606 12.7997 1.90589C11.9245 1.00571 10.7375 0.5 9.49984 0.5C8.26216 0.5 7.07518 1.00571 6.20001 1.90589C5.32484 2.80606 4.83317 4.02696 4.83317 5.3V6.5H1.33317C1.02375 6.5 0.727005 6.62643 0.508213 6.85147C0.28942 7.07652 0.166504 7.38174 0.166504 7.7V20.9C0.166504 21.8548 0.535253 22.7705 1.19163 23.4456C1.84801 24.1207 2.73825 24.5 3.6665 24.5H15.3332C16.2614 24.5 17.1517 24.1207 17.808 23.4456C18.4644 22.7705 18.8332 21.8548 18.8332 20.9V7.7C18.8332 7.38174 18.7103 7.07652 18.4915 6.85147C18.2727 6.62643 17.9759 6.5 17.6665 6.5ZM7.1665 5.3C7.1665 4.66348 7.41234 4.05303 7.84992 3.60294C8.28751 3.15286 8.881 2.9 9.49984 2.9C10.1187 2.9 10.7122 3.15286 11.1498 3.60294C11.5873 4.05303 11.8332 4.66348 11.8332 5.3V6.5H7.1665V5.3ZM16.4998 20.9C16.4998 21.2183 16.3769 21.5235 16.1581 21.7485C15.9393 21.9736 15.6426 22.1 15.3332 22.1H3.6665C3.35708 22.1 3.06034 21.9736 2.84155 21.7485C2.62275 21.5235 2.49984 21.2183 2.49984 20.9V8.9H4.83317V10.1C4.83317 10.4183 4.95609 10.7235 5.17488 10.9485C5.39367 11.1736 5.69042 11.3 5.99984 11.3C6.30926 11.3 6.606 11.1736 6.8248 10.9485C7.04359 10.7235 7.1665 10.4183 7.1665 10.1V8.9H11.8332V10.1C11.8332 10.4183 11.9561 10.7235 12.1749 10.9485C12.3937 11.1736 12.6904 11.3 12.9998 11.3C13.3093 11.3 13.606 11.1736 13.8248 10.9485C14.0436 10.7235 14.1665 10.4183 14.1665 10.1V8.9H16.4998V20.9Z" fill="#EEEEEE"/>
</svg>
